<?xml version="1.0" encoding="utf-8"?>
<!-- Generator: Adobe Illustrator 18.1.1, SVG Export Plug-In . SVG Version: 6.00 Build 0)  -->
<!DOCTYPE svg PUBLIC "-//W3C//DTD SVG 1.1//EN" "http://www.w3.org/Graphics/SVG/1.1/DTD/svg11.dtd">
<svg version="1.1" id="Layer_1" xmlns="http://www.w3.org/2000/svg" xmlns:xlink="http://www.w3.org/1999/xlink" x="0px" y="0px"
	 viewBox="0 0 24 22.5" enable-background="new 0 0 24 22.5" xml:space="preserve">
<path d="M17.25,2.25c2.481,0,4.5,2.019,4.5,4.5c0,6.629-7.076,11.544-9.75,13.162C9.326,18.294,2.25,13.379,2.25,6.75
	c0-2.481,2.019-4.5,4.5-4.5c1.364,0,2.64,0.611,3.5,1.676c0.427,0.529,1.07,0.836,1.75,0.836l0,0c0.68,0,1.323-0.307,1.75-0.836
	C14.61,2.861,15.886,2.25,17.25,2.25 M17.25,0C15.128,0,13.237,0.981,12,2.511C10.762,0.981,8.872,0,6.75,0C3.022,0,0,3.022,0,6.75
	c0,9,10.5,15,12,15.75c1.5-0.75,12-6.75,12-15.75C24,3.022,20.978,0,17.25,0L17.25,0z"/>
</svg>
