<?xml version="1.0" encoding="utf-8"?>
<!-- Generator: Adobe Illustrator 18.1.1, SVG Export Plug-In . SVG Version: 6.00 Build 0)  -->
<!DOCTYPE svg PUBLIC "-//W3C//DTD SVG 1.1//EN" "http://www.w3.org/Graphics/SVG/1.1/DTD/svg11.dtd">
<svg version="1.1" id="Layer_1" xmlns="http://www.w3.org/2000/svg" xmlns:xlink="http://www.w3.org/1999/xlink" x="0px" y="0px"
	 viewBox="407.011 582 24.989 24" enable-background="new 407.011 582 24.989 24" xml:space="preserve">
<g>
	<g>
		<path d="M419.011,582h-1.5l-5.25,5.25h-3.75c-0.828,0-1.5,0.672-1.5,1.5v10.5c0,0.828,0.672,1.5,1.5,1.5h3.75l5.25,5.25h1.5
			c0.828,0,1.5-0.672,1.5-1.5v-21C420.511,582.672,419.839,582,419.011,582z M418.261,603.568l-5.068-5.068h-3.932v-9h3.932
			l5.068-5.068V603.568z M432,592.342l-1.331-1.331l-2.158,2.158l-2.158-2.158l-1.331,1.331l2.158,2.158l-2.158,2.158l1.331,1.331
			l2.158-2.158l2.158,2.158l1.331-1.331l-2.158-2.158L432,592.342z"/>
	</g>
</g>
</svg>
