<?xml version="1.0" encoding="utf-8"?>
<!-- Generator: Adobe Illustrator 18.1.1, SVG Export Plug-In . SVG Version: 6.00 Build 0)  -->
<!DOCTYPE svg PUBLIC "-//W3C//DTD SVG 1.1//EN" "http://www.w3.org/Graphics/SVG/1.1/DTD/svg11.dtd">
<svg version="1.1" id="Layer_1" xmlns="http://www.w3.org/2000/svg" xmlns:xlink="http://www.w3.org/1999/xlink" x="0px" y="0px"
	 viewBox="0 0 36 36" enable-background="new 0 0 36 36" xml:space="preserve">
<path d="M36,13.5C36,20.955,29.955,27,22.5,27c-3.119,0-5.983-1.068-8.268-2.845L2.881,35.506C2.551,35.835,2.119,36,1.688,36
	s-0.863-0.165-1.193-0.494C0.165,35.176,0,34.744,0,34.312c0-0.433,0.165-0.863,0.494-1.193l11.351-11.351
	C10.068,19.483,9,16.619,9,13.5C9,6.045,15.045,0,22.5,0C29.955,0,36,6.045,36,13.5z M32.625,13.5
	c0-5.583-4.542-10.125-10.125-10.125c-5.583,0-10.125,4.542-10.125,10.125S16.917,23.625,22.5,23.625
	C28.083,23.625,32.625,19.083,32.625,13.5z"/>
</svg>
