<?xml version="1.0" encoding="utf-8"?>
<!-- Generator: Adobe Illustrator 18.1.1, SVG Export Plug-In . SVG Version: 6.00 Build 0)  -->
<!DOCTYPE svg PUBLIC "-//W3C//DTD SVG 1.1//EN" "http://www.w3.org/Graphics/SVG/1.1/DTD/svg11.dtd">
<svg version="1.1" id="Layer_1" xmlns="http://www.w3.org/2000/svg" xmlns:xlink="http://www.w3.org/1999/xlink" x="0px" y="0px"
	 viewBox="0 0 25 25" enable-background="new 0 0 25 25" xml:space="preserve">
<path fill-rule="evenodd" clip-rule="evenodd" d="M4.795,18.75H4.688V25l7.031-4.687h3.125C20.453,20.313,25,15.765,25,10.156
	S20.453,0,14.844,0h-4.688C4.547,0,0,4.547,0,10.156C0,13.791,1.924,16.955,4.795,18.75z M10.156,3.125h4.688
	c3.883,0,7.031,3.148,7.031,7.031s-3.148,7.031-7.031,7.031h-3.125l-3.906,2.344v-2.344v-0.43c-2.725-0.969-4.688-3.544-4.688-6.601
	C3.125,6.273,6.273,3.125,10.156,3.125z"/>
</svg>
