<?xml version="1.0" encoding="utf-8"?>
<!-- Generator: Adobe Illustrator 18.1.1, SVG Export Plug-In . SVG Version: 6.00 Build 0)  -->
<!DOCTYPE svg PUBLIC "-//W3C//DTD SVG 1.1//EN" "http://www.w3.org/Graphics/SVG/1.1/DTD/svg11.dtd">
<svg version="1.1" id="Layer_1" xmlns="http://www.w3.org/2000/svg" xmlns:xlink="http://www.w3.org/1999/xlink" x="0px" y="0px"
	 viewBox="0 0 22.5 24" enable-background="new 0 0 22.5 24" xml:space="preserve">
<path fill-rule="evenodd" clip-rule="evenodd" d="M18.75,19.619V22.5c0,0.828-0.672,1.5-1.5,1.5h-12c-0.828,0-1.5-0.672-1.5-1.5
	v-2.881C1.453,17.559,0,14.578,0,11.25C0,5.036,5.036,0,11.25,0S22.5,5.036,22.5,11.25C22.5,14.578,21.047,17.559,18.75,19.619z
	 M11.25,2.25c-4.963,0-9,4.037-9,9c0,2.543,1.094,4.983,3.002,6.694L6,18.614v1.005v2.131h1.5V19.5H9v2.25h1.5V19.5H12v2.25h1.5
	V19.5H15v2.25h1.5v-2.131v-1.005l0.748-0.67c1.908-1.711,3.002-4.151,3.002-6.694C20.25,6.287,16.213,2.25,11.25,2.25z M15,15
	c-1.242,0-2.25-1.008-2.25-2.25c0-1.243,1.008-2.25,2.25-2.25s2.25,1.007,2.25,2.25C17.25,13.992,16.242,15,15,15z M7.5,15
	c-1.242,0-2.25-1.008-2.25-2.25c0-1.243,1.008-2.25,2.25-2.25s2.25,1.007,2.25,2.25C9.75,13.992,8.742,15,7.5,15z"/>
</svg>
